<?xml version="1.0" encoding="UTF-8" standalone="no"?>
<!-- Created with Inkscape (http://www.inkscape.org/) -->

<svg
   xmlns:dc="http://purl.org/dc/elements/1.1/"
   xmlns:cc="http://creativecommons.org/ns#"
   xmlns:rdf="http://www.w3.org/1999/02/22-rdf-syntax-ns#"
   xmlns:svg="http://www.w3.org/2000/svg"
   xmlns="http://www.w3.org/2000/svg"
   xmlns:xlink="http://www.w3.org/1999/xlink"
   xmlns:sodipodi="http://sodipodi.sourceforge.net/DTD/sodipodi-0.dtd"
   xmlns:inkscape="http://www.inkscape.org/namespaces/inkscape"
   width="220"
   height="300"
   id="svg2"
   version="1.1"
   inkscape:version="0.48.0 r9654"
   sodipodi:docname="tcmsLogo.svg">
  <defs
     id="defs4">
    <linearGradient
       id="linearGradient6476">
      <stop
         id="stop6478"
         offset="0"
         style="stop-color:#808080;stop-opacity:1;" />
      <stop
         id="stop6480"
         offset="1"
         style="stop-color:#202020;stop-opacity:1;" />
    </linearGradient>
    <linearGradient
       inkscape:collect="always"
       id="linearGradient25004">
      <stop
         style="stop-color:#448de9;stop-opacity:1;"
         offset="0"
         id="stop25006" />
      <stop
         style="stop-color:#448de9;stop-opacity:0;"
         offset="1"
         id="stop25008" />
    </linearGradient>
    <linearGradient
       id="linearGradient24996">
      <stop
         style="stop-color:#cccccc;stop-opacity:1;"
         offset="0"
         id="stop24998" />
      <stop
         style="stop-color:#888282;stop-opacity:1;"
         offset="1"
         id="stop25000" />
    </linearGradient>
    <linearGradient
       id="linearGradient24970">
      <stop
         style="stop-color:#c244e9;stop-opacity:1;"
         offset="0"
         id="stop24972" />
      <stop
         style="stop-color:#c244e9;stop-opacity:0;"
         offset="1"
         id="stop24974" />
    </linearGradient>
    <linearGradient
       inkscape:collect="always"
       xlink:href="#linearGradient24970"
       id="linearGradient24994"
       gradientUnits="userSpaceOnUse"
       x1="416.94366"
       y1="552.6051"
       x2="586.21405"
       y2="552.6051"
       gradientTransform="translate(0,-52)" />
    <linearGradient
       inkscape:collect="always"
       xlink:href="#linearGradient24996"
       id="linearGradient25002"
       x1="470.46237"
       y1="490.21295"
       x2="470.46237"
       y2="530.50244"
       gradientUnits="userSpaceOnUse" />
    <linearGradient
       inkscape:collect="always"
       xlink:href="#linearGradient25004"
       id="linearGradient25010"
       x1="416.94366"
       y1="552.6051"
       x2="586.21405"
       y2="552.6051"
       gradientUnits="userSpaceOnUse" />
    <linearGradient
       inkscape:collect="always"
       xlink:href="#linearGradient24996"
       id="linearGradient5176"
       gradientUnits="userSpaceOnUse"
       x1="470.46237"
       y1="490.21295"
       x2="470.46237"
       y2="530.50244" />
    <linearGradient
       inkscape:collect="always"
       xlink:href="#linearGradient24996"
       id="linearGradient6464"
       gradientUnits="userSpaceOnUse"
       x1="470.46237"
       y1="490.21295"
       x2="470.46237"
       y2="530.50244" />
    <linearGradient
       inkscape:collect="always"
       xlink:href="#linearGradient6476"
       id="linearGradient6468"
       gradientUnits="userSpaceOnUse"
       x1="470.46237"
       y1="490.21295"
       x2="470.46237"
       y2="530.50244"
       gradientTransform="translate(-68,119.15737)" />
    <linearGradient
       inkscape:collect="always"
       xlink:href="#linearGradient24996"
       id="linearGradient6494"
       gradientUnits="userSpaceOnUse"
       x1="470.46237"
       y1="490.21295"
       x2="470.46237"
       y2="530.50244"
       gradientTransform="translate(-68,-0.84263009)" />
  </defs>
  <sodipodi:namedview
     id="base"
     pagecolor="#ffffff"
     bordercolor="#666666"
     borderopacity="1.0"
     inkscape:pageopacity="0.0"
     inkscape:pageshadow="2"
     inkscape:zoom="0.93056842"
     inkscape:cx="131.04535"
     inkscape:cy="34.688476"
     inkscape:document-units="px"
     inkscape:current-layer="layer1"
     showgrid="false"
     inkscape:window-width="1185"
     inkscape:window-height="756"
     inkscape:window-x="0"
     inkscape:window-y="0"
     inkscape:window-maximized="0"
     showguides="true"
     inkscape:guide-bbox="true" />
  <metadata
     id="metadata7">
    <rdf:RDF>
      <cc:Work
         rdf:about="">
        <dc:format>image/svg+xml</dc:format>
        <dc:type
           rdf:resource="http://purl.org/dc/dcmitype/StillImage" />
        <dc:title></dc:title>
      </cc:Work>
    </rdf:RDF>
  </metadata>
  <g
     inkscape:label="Layer 1"
     inkscape:groupmode="layer"
     id="layer1"
     transform="translate(0,-752.36218)">
    <text
       xml:space="preserve"
       style="font-size:16px;font-style:normal;font-variant:normal;font-weight:normal;font-stretch:normal;line-height:125%;letter-spacing:0px;word-spacing:0px;fill:#000000;fill-opacity:1;stroke:none;font-family:Tahoma;-inkscape-font-specification:Tahoma"
       x="150.49753"
       y="750.09753"
       id="text24669"
       sodipodi:linespacing="125%"><tspan
         sodipodi:role="line"
         id="tspan24671"
         x="150.49753"
         y="750.09753" /></text>
    <text
       xml:space="preserve"
       style="font-size:4px;font-style:normal;font-variant:normal;font-weight:normal;font-stretch:normal;line-height:125%;letter-spacing:0px;word-spacing:0px;fill:#000000;fill-opacity:1;stroke:none;font-family:Tahoma;-inkscape-font-specification:Tahoma"
       x="156.73985"
       y="733.92749"
       id="text24689"
       sodipodi:linespacing="125%"><tspan
         sodipodi:role="line"
         id="tspan24691"
         x="156.73985"
         y="733.92749" /></text>
    <g
       id="g7369">
      <g
         transform="translate(-525.71051,471.27157)"
         id="g6666">
        <text
           xml:space="preserve"
           style="font-size:29.31297684px;font-style:normal;font-variant:normal;font-weight:normal;font-stretch:normal;line-height:125%;letter-spacing:0px;word-spacing:0px;fill:#ffffff;fill-opacity:1;stroke:none;font-family:Calibri;-inkscape-font-specification:Calibri"
           x="585.15222"
           y="497.97412"
           id="text5281"
           sodipodi:linespacing="125%"><tspan
             style="fill:#cccccc"
             sodipodi:role="line"
             id="tspan5283"
             x="585.15222"
             y="497.97412"><tspan
               style="fill:#e6e6e6"
               id="tspan5699">TRIPLE</tspan><tspan
               style="fill:#b3b3b3"
               id="tspan5368">CITIES</tspan></tspan></text>
        <text
           sodipodi:linespacing="125%"
           id="text5285"
           y="509.26099"
           x="584.43927"
           style="font-size:11.04559231px;font-style:normal;font-variant:normal;font-weight:normal;font-stretch:normal;line-height:125%;letter-spacing:0px;word-spacing:0px;fill:#cccccc;fill-opacity:1;stroke:none;font-family:Calibri;-inkscape-font-specification:Calibri"
           xml:space="preserve"><tspan
             y="509.26099"
             x="584.43927"
             id="tspan5287"
             sodipodi:role="line"
             style="fill:#ffffff;fill-opacity:1;stroke:none">M    A    K    E    R    S    P    A    C    E</tspan></text>
      </g>
      <g
         id="g7244">
        <path
           transform="matrix(0.78354633,-0.45266767,0.4523807,0.78404338,-440.01906,544.64207)"
           d="m 228.96116,668.68895 -0.30094,34.57595 -0.30094,-34.57595 -29.79319,-17.5486 30.09413,17.02735 30.09413,-17.02736 z"
           inkscape:randomized="0"
           inkscape:rounded="8.6736174e-17"
           inkscape:flatsided="false"
           sodipodi:arg2="1.5707963"
           sodipodi:arg1="0.52359878"
           sodipodi:r2="34.749706"
           sodipodi:r1="0.34749705"
           sodipodi:cy="668.5152"
           sodipodi:cx="228.66022"
           sodipodi:sides="3"
           id="path5277"
           style="fill:#f2f2f2;fill-opacity:1;stroke:none"
           sodipodi:type="star" />
        <path
           style="font-size:medium;font-style:normal;font-variant:normal;font-weight:normal;font-stretch:normal;text-indent:0;text-align:start;text-decoration:none;line-height:normal;letter-spacing:normal;word-spacing:normal;text-transform:none;direction:ltr;block-progression:tb;writing-mode:lr-tb;text-anchor:start;baseline-shift:baseline;color:#000000;fill:#ff7d00;fill-opacity:1;stroke:none;stroke-width:5.27419662;marker:none;visibility:visible;display:inline;overflow:visible;enable-background:accumulate;font-family:Sans;-inkscape-font-specification:Sans"
           d="m 33.130288,949.51353 a 1.5094257,1.4909312 0 0 0 -1.305614,0.74197 l -8.334469,14.27411 a 1.5094257,1.4909312 0 0 0 0,1.50161 l 8.334469,14.25645 a 1.5094257,1.4909312 0 0 0 1.305614,0.75964 l 16.686823,0 a 1.5094257,1.4909312 0 0 0 1.305614,-0.75964 l 8.334469,-14.25645 a 1.5094257,1.4909312 0 0 0 0,-1.50161 L 51.122725,950.2555 a 1.5094257,1.4909312 0 0 0 -1.305614,-0.74197 l -16.686823,0 z m 0.876372,2.98555 14.93408,0 7.458098,12.79017 -7.458098,12.77251 -14.93408,0 -7.458098,-12.77251 7.458098,-12.79017 z"
           id="path5291"
           inkscape:connector-curvature="0" />
        <g
           id="g6343"
           transform="translate(-519.87485,471.27157)">
          <path
             id="rect5295"
             d="m 568.65625,486.125 -0.5,1.28125 0.375,0.59375 0,5.96875 -0.21875,0 c -0.3452,0 -0.625,0.2798 -0.625,0.625 l 0,6.6875 c 0,0.3452 0.2798,0.625 0.625,0.625 l 1.34375,0 c 0.3452,0 0.625,-0.2798 0.625,-0.625 l 0,-6.6875 c 0,-0.3452 -0.2798,-0.625 -0.625,-0.625 l -0.25,0 0,-5.96875 0.375,-0.59375 -0.5,-1.28125 -0.625,0 z"
             style="fill:#cccccc;fill-opacity:1;stroke:none"
             inkscape:connector-curvature="0" />
          <path
             id="path5307"
             d="m 563.4375,483.46875 -7.0625,3.46875 -0.21875,-0.40625 -0.78125,0.4375 0.5,0.90625 -3.90625,2.25 0.0625,0.125 -2.03125,1.5 0.0937,0.1875 2.3125,-1.03125 0.0937,0.15625 3.90625,-2.25 0.53125,0.875 0.78125,-0.4375 -0.25,-0.40625 6.53125,-4.375 -0.5625,-1 z"
             style="fill:#cccccc;fill-opacity:1;stroke:none"
             inkscape:connector-curvature="0" />
          <g
             style="fill:#cccccc"
             id="g5315"
             transform="matrix(0.1216438,0.07023109,-0.07023109,0.1216438,592.65878,385.48841)">
            <path
               sodipodi:nodetypes="sssss"
               inkscape:connector-curvature="0"
               id="path5317"
               d="m 212.30493,837.25842 c 0,3.39021 3.50706,5.78025 -18.02078,5.78025 -21.52784,0 -62.98373,-2.74831 -62.98373,-6.13852 0,-3.39021 41.45589,-6.13852 62.98373,-6.13852 21.52784,0 18.02078,3.10658 18.02078,6.49679 z"
               style="fill:#cccccc;fill-opacity:1;stroke:none" />
            <path
               sodipodi:nodetypes="sssss"
               inkscape:connector-curvature="0"
               id="path5319"
               d="m 241.20293,829.05004 c 0,3.41321 -5.64289,13.12434 -13.52204,14.08215 -8.0562,0.97933 -14.68909,-2.76695 -14.68909,-6.18016 0,-3.41321 6.57653,-6.18017 14.68909,-6.18017 8.11256,0 13.52204,-5.13503 13.52204,-1.72182 z"
               style="fill:#cccccc;fill-opacity:1;stroke:none"
               transform="matrix(1.0853659,0,0,1.057971,-18.182228,-48.87723)" />
          </g>
        </g>
      </g>
    </g>
    <g
       id="g7238"
       transform="translate(0,2.7753396)">
      <path
         inkscape:connector-curvature="0"
         id="path5637"
         d="m 23.757102,1004.3364 a 1.7138485,1.6928493 0 0 0 -1.306145,0.8369 l -8.225186,14.0869 a 1.7138485,1.6928493 0 0 0 0,1.6911 l 8.225186,14.087 a 1.7138485,1.6928493 0 0 0 1.482651,0.8368 l 16.468022,0 a 1.7138485,1.6928493 0 0 0 1.482653,-0.8368 l 8.225186,-14.087 a 1.7138485,1.6928493 0 0 0 0,-1.6911 l -8.225186,-14.0869 a 1.7138485,1.6928493 0 0 0 -1.482653,-0.8369 l -16.468022,0 a 1.7138485,1.6928493 0 0 0 -0.176506,0 z m 1.164941,3.3823 14.491154,0 7.236751,12.3958 -7.236751,12.3784 -14.491154,0 -7.236752,-12.3784 7.236752,-12.3958 z"
         style="font-size:medium;font-style:normal;font-variant:normal;font-weight:normal;font-stretch:normal;text-indent:0;text-align:start;text-decoration:none;line-height:normal;letter-spacing:normal;word-spacing:normal;text-transform:none;direction:ltr;block-progression:tb;writing-mode:lr-tb;text-anchor:start;baseline-shift:baseline;color:#000000;fill:#ff7d00;fill-opacity:1;stroke:none;stroke-width:6.06805086;marker:none;visibility:visible;display:inline;overflow:visible;enable-background:accumulate;font-family:Sans;-inkscape-font-specification:Sans" />
      <text
         xml:space="preserve"
         style="font-size:48.49547195px;font-style:normal;font-variant:normal;font-weight:normal;font-stretch:normal;line-height:125%;letter-spacing:0px;word-spacing:0px;fill:#333333;fill-opacity:1;stroke:none;font-family:Calibri;-inkscape-font-specification:Calibri"
         x="49.983379"
         y="1035.4252"
         id="text5639"
         sodipodi:linespacing="125%"><tspan
           sodipodi:role="line"
           id="tspan5641"
           x="49.983379"
           y="1035.4252">TC<tspan
   id="tspan5643"
   style="fill:#999999">MS</tspan></tspan></text>
    </g>
    <g
       id="g7563">
      <g
         inkscape:export-ydpi="863.81958"
         inkscape:export-xdpi="863.81958"
         inkscape:export-filename="/Users/adam/tcms_dark_words.png"
         id="g7273">
        <text
           sodipodi:linespacing="125%"
           id="text5032"
           y="912.84576"
           x="59.441711"
           style="font-size:29.31297684px;font-style:normal;font-variant:normal;font-weight:normal;font-stretch:normal;line-height:125%;letter-spacing:0px;word-spacing:0px;fill:#ffffff;fill-opacity:1;stroke:none;font-family:Calibri;-inkscape-font-specification:Calibri"
           xml:space="preserve"><tspan
             y="912.84576"
             x="59.441711"
             id="tspan5034"
             sodipodi:role="line"
             style="fill:#ffffff"><tspan
               style="fill:#1a1a1a"
               id="tspan5036">TRIPLE</tspan><tspan
               style="fill:#999999"
               id="tspan5038">CITIES</tspan></tspan></text>
        <text
           xml:space="preserve"
           style="font-size:11.04559231px;font-style:normal;font-variant:normal;font-weight:normal;font-stretch:normal;line-height:125%;letter-spacing:0px;word-spacing:0px;fill:#1a1a1a;fill-opacity:1;stroke:none;font-family:Calibri;-inkscape-font-specification:Calibri"
           x="58.72876"
           y="924.13263"
           id="text5040"
           sodipodi:linespacing="125%"><tspan
             style="fill:#000000;fill-opacity:1;stroke:none"
             sodipodi:role="line"
             id="tspan5042"
             x="58.72876"
             y="924.13263">M    A    K    E    R    S    P    A    C    E</tspan></text>
      </g>
      <g
         inkscape:export-ydpi="863.81958"
         inkscape:export-xdpi="863.81958"
         inkscape:export-filename="/Users/adam/tcms_dark_logo.png"
         id="g7254">
        <path
           sodipodi:type="star"
           style="fill:#1a1a1a;fill-opacity:1;stroke:none"
           id="path6205"
           sodipodi:sides="3"
           sodipodi:cx="228.66022"
           sodipodi:cy="668.5152"
           sodipodi:r1="0.34749705"
           sodipodi:r2="34.749706"
           sodipodi:arg1="0.52359878"
           sodipodi:arg2="1.5707963"
           inkscape:flatsided="false"
           inkscape:rounded="8.6736174e-17"
           inkscape:randomized="0"
           d="m 228.96116,668.68895 -0.30094,34.57595 -0.30094,-34.57595 -29.79319,-17.5486 30.09413,17.02735 30.09413,-17.02736 z"
           transform="matrix(0.78354633,-0.45266767,0.4523807,0.78404338,-440.01906,488.2421)" />
        <path
           style="font-size:medium;font-style:normal;font-variant:normal;font-weight:normal;font-stretch:normal;text-indent:0;text-align:start;text-decoration:none;line-height:normal;letter-spacing:normal;word-spacing:normal;text-transform:none;direction:ltr;block-progression:tb;writing-mode:lr-tb;text-anchor:start;baseline-shift:baseline;color:#000000;fill:#ff7d00;fill-opacity:1;stroke:none;stroke-width:5.27419662;marker:none;visibility:visible;display:inline;overflow:visible;enable-background:accumulate;font-family:Sans;-inkscape-font-specification:Sans"
           d="m 33.130288,893.11356 a 1.5094257,1.4909312 0 0 0 -1.305614,0.74197 l -8.334469,14.27411 a 1.5094257,1.4909312 0 0 0 0,1.50161 l 8.334469,14.25645 a 1.5094257,1.4909312 0 0 0 1.305614,0.75964 l 16.686823,0 a 1.5094257,1.4909312 0 0 0 1.305614,-0.75964 l 8.334469,-14.25645 a 1.5094257,1.4909312 0 0 0 0,-1.50161 l -8.334469,-14.27411 a 1.5094257,1.4909312 0 0 0 -1.305614,-0.74197 l -16.686823,0 z m 0.876372,2.98555 14.93408,0 7.458098,12.79017 -7.458098,12.77251 -14.93408,0 -7.458098,-12.77251 7.458098,-12.79017 z"
           id="path6207"
           inkscape:connector-curvature="0" />
        <g
           id="g6377"
           transform="translate(-518.21496,481.5253)">
          <path
             id="path6211"
             d="m 567,419.46875 -0.5,1.28125 0.375,0.59375 0,5.96875 -0.21875,0 c -0.3452,0 -0.625,0.2798 -0.625,0.625 l 0,6.6875 c 0,0.3452 0.2798,0.625 0.625,0.625 l 1.34375,0 c 0.3452,0 0.625,-0.2798 0.625,-0.625 l 0,-6.6875 c 0,-0.3452 -0.2798,-0.625 -0.625,-0.625 l -0.25,0 0,-5.96875 0.375,-0.59375 -0.5,-1.28125 -0.625,0 z"
             style="fill:#1a1a1a;fill-opacity:1;stroke:none"
             inkscape:connector-curvature="0" />
          <path
             inkscape:connector-curvature="0"
             style="fill:#1a1a1a;fill-opacity:1;stroke:none"
             d="m 561.77761,416.81505 -7.0625,3.46875 -0.21875,-0.40625 -0.78125,0.4375 0.5,0.90625 -3.90625,2.25 0.0625,0.125 -2.03125,1.5 0.0937,0.1875 2.3125,-1.03125 0.0937,0.15625 3.90625,-2.25 0.53125,0.875 0.78125,-0.4375 -0.25,-0.40625 6.53125,-4.375 -0.5625,-1 z"
             id="path6215" />
          <g
             transform="matrix(0.1216438,0.07023109,-0.07023109,0.1216438,590.99889,318.83471)"
             id="g6217"
             style="fill:#1a1a1a">
            <path
               style="fill:#1a1a1a;fill-opacity:1;stroke:none"
               d="m 212.30493,837.25842 c 0,3.39021 3.50706,5.78025 -18.02078,5.78025 -21.52784,0 -62.98373,-2.74831 -62.98373,-6.13852 0,-3.39021 41.45589,-6.13852 62.98373,-6.13852 21.52784,0 18.02078,3.10658 18.02078,6.49679 z"
               id="path6219"
               inkscape:connector-curvature="0"
               sodipodi:nodetypes="sssss" />
            <path
               transform="matrix(1.0853659,0,0,1.057971,-18.182228,-48.87723)"
               style="fill:#1a1a1a;fill-opacity:1;stroke:none"
               d="m 241.20293,829.05004 c 0,3.41321 -5.64289,13.12434 -13.52204,14.08215 -8.0562,0.97933 -14.68909,-2.76695 -14.68909,-6.18016 0,-3.41321 6.57653,-6.18017 14.68909,-6.18017 8.11256,0 13.52204,-5.13503 13.52204,-1.72182 z"
               id="path6221"
               inkscape:connector-curvature="0"
               sodipodi:nodetypes="sssss" />
          </g>
        </g>
      </g>
    </g>
    <g
       id="g7334">
      <g
         id="g7281">
        <text
           sodipodi:linespacing="125%"
           id="text6714"
           y="856.44568"
           x="59.441696"
           style="font-size:29.31297684px;font-style:normal;font-variant:normal;font-weight:normal;font-stretch:normal;line-height:125%;letter-spacing:0px;word-spacing:0px;fill:#ffffff;fill-opacity:1;stroke:none;font-family:Calibri;-inkscape-font-specification:Calibri"
           xml:space="preserve"
           inkscape:export-filename="/Users/adam/tcmsSingle2.png"
           inkscape:export-xdpi="120"
           inkscape:export-ydpi="120"><tspan
             y="856.44568"
             x="59.441696"
             id="tspan6716"
             sodipodi:role="line"
             style="fill:#ffffff;fill-opacity:1"><tspan
               id="tspan6718"
               style="fill:#ffffff;fill-opacity:1">TRIPLE</tspan><tspan
               id="tspan6720"
               style="fill:#ffffff;fill-opacity:1">CITIES</tspan></tspan></text>
        <text
           xml:space="preserve"
           style="font-size:11.04559231px;font-style:normal;font-variant:normal;font-weight:normal;font-stretch:normal;line-height:125%;letter-spacing:0px;word-spacing:0px;fill:#ffffff;fill-opacity:1;stroke:none;font-family:Calibri;-inkscape-font-specification:Calibri"
           x="58.728745"
           y="867.73254"
           id="text6722"
           sodipodi:linespacing="125%"
           inkscape:export-filename="/Users/adam/tcmsSingle2.png"
           inkscape:export-xdpi="120"
           inkscape:export-ydpi="120"><tspan
             style="fill:#ffffff;fill-opacity:1;stroke:none"
             sodipodi:role="line"
             id="tspan6724"
             x="58.728745"
             y="867.73254">M    A    K    E    R    S    P    A    C    E</tspan></text>
      </g>
      <g
         id="g7289">
        <path
           sodipodi:type="star"
           style="fill:#ffffff;fill-opacity:1;stroke:none"
           id="path6728"
           sodipodi:sides="3"
           sodipodi:cx="228.66022"
           sodipodi:cy="668.5152"
           sodipodi:r1="0.34749705"
           sodipodi:r2="34.749706"
           sodipodi:arg1="0.52359878"
           sodipodi:arg2="1.5707963"
           inkscape:flatsided="false"
           inkscape:rounded="8.6736174e-17"
           inkscape:randomized="0"
           d="m 228.96116,668.68895 -0.30094,34.57595 -0.30094,-34.57595 -29.79319,-17.5486 30.09413,17.02735 30.09413,-17.02736 z"
           transform="matrix(0.78354633,-0.45266767,0.4523807,0.78404338,-440.01906,431.84208)"
           inkscape:export-filename="/Users/adam/tcmsSingle2.png"
           inkscape:export-xdpi="120"
           inkscape:export-ydpi="120" />
        <path
           style="font-size:medium;font-style:normal;font-variant:normal;font-weight:normal;font-stretch:normal;text-indent:0;text-align:start;text-decoration:none;line-height:normal;letter-spacing:normal;word-spacing:normal;text-transform:none;direction:ltr;block-progression:tb;writing-mode:lr-tb;text-anchor:start;baseline-shift:baseline;color:#000000;fill:#ffffff;fill-opacity:1;stroke:none;stroke-width:5.27419662;marker:none;visibility:visible;display:inline;overflow:visible;enable-background:accumulate;font-family:Sans;-inkscape-font-specification:Sans"
           d="m 33.130288,836.71354 a 1.5094257,1.4909312 0 0 0 -1.305614,0.74197 l -8.334469,14.27411 a 1.5094257,1.4909312 0 0 0 0,1.50161 l 8.334469,14.25645 a 1.5094257,1.4909312 0 0 0 1.305614,0.75964 l 16.686823,0 a 1.5094257,1.4909312 0 0 0 1.305614,-0.75964 l 8.334469,-14.25645 a 1.5094257,1.4909312 0 0 0 0,-1.50161 l -8.334469,-14.27411 a 1.5094257,1.4909312 0 0 0 -1.305614,-0.74197 l -16.686823,0 z m 0.876372,2.98555 14.93408,0 7.458098,12.79017 -7.458098,12.77251 -14.93408,0 -7.458098,-12.77251 7.458098,-12.79017 z"
           id="path6730"
           inkscape:connector-curvature="0" />
        <path
           id="path6734"
           d="m 48.7814,844.59658 -0.5,1.28125 0.375,0.59375 0,5.96875 -0.21875,0 c -0.3452,0 -0.625,0.2798 -0.625,0.625 l 0,6.6875 c 0,0.3452 0.2798,0.625 0.625,0.625 l 1.34375,0 c 0.3452,0 0.625,-0.2798 0.625,-0.625 l 0,-6.6875 c 0,-0.3452 -0.2798,-0.625 -0.625,-0.625 l -0.25,0 0,-5.96875 0.375,-0.59375 -0.5,-1.28125 -0.625,0 z"
           style="fill:#ffffff;fill-opacity:1;stroke:none"
           inkscape:connector-curvature="0" />
        <path
           id="path6736"
           d="m 43.56265,841.94033 -7.0625,3.46875 -0.21875,-0.40625 -0.78125,0.4375 0.5,0.90625 -3.90625,2.25 0.0625,0.125 -2.03125,1.5 0.0937,0.1875 2.3125,-1.03125 0.0937,0.15625 3.90625,-2.25 0.53125,0.875 0.78125,-0.4375 -0.25,-0.40625 6.53125,-4.375 -0.5625,-1 z"
           style="fill:#ffffff;fill-opacity:1;stroke:none"
           inkscape:connector-curvature="0" />
        <g
           style="fill:#ffffff;fill-opacity:1"
           id="g6738"
           transform="matrix(0.1216438,0.07023109,-0.07023109,0.1216438,72.78393,743.95999)">
          <path
             sodipodi:nodetypes="sssss"
             inkscape:connector-curvature="0"
             id="path6740"
             d="m 212.30493,837.25842 c 0,3.39021 3.50706,5.78025 -18.02078,5.78025 -21.52784,0 -62.98373,-2.74831 -62.98373,-6.13852 0,-3.39021 41.45589,-6.13852 62.98373,-6.13852 21.52784,0 18.02078,3.10658 18.02078,6.49679 z"
             style="fill:#ffffff;fill-opacity:1;stroke:none" />
          <path
             sodipodi:nodetypes="sssss"
             inkscape:connector-curvature="0"
             id="path6742"
             d="m 241.20293,829.05004 c 0,3.41321 -5.64289,13.12434 -13.52204,14.08215 -8.0562,0.97933 -14.68909,-2.76695 -14.68909,-6.18016 0,-3.41321 6.57653,-6.18017 14.68909,-6.18017 8.11256,0 13.52204,-5.13503 13.52204,-1.72182 z"
             style="fill:#ffffff;fill-opacity:1;stroke:none"
             transform="matrix(1.0853659,0,0,1.057971,-18.182228,-48.87723)" />
        </g>
      </g>
    </g>
    <g
       id="g7316">
      <g
         id="g7308">
        <text
           inkscape:export-ydpi="120"
           inkscape:export-xdpi="120"
           inkscape:export-filename="/Users/adam/tcmsSingle2.png"
           xml:space="preserve"
           style="font-size:29.31297684px;font-style:normal;font-variant:normal;font-weight:normal;font-stretch:normal;line-height:125%;letter-spacing:0px;word-spacing:0px;fill:#000000;fill-opacity:1;stroke:none;font-family:Calibri;-inkscape-font-specification:Calibri"
           x="59.441696"
           y="800.04565"
           id="text6854"
           sodipodi:linespacing="125%"><tspan
             style="fill:#000000;fill-opacity:1"
             sodipodi:role="line"
             id="tspan6856"
             x="59.441696"
             y="800.04565"><tspan
               style="fill:#000000;fill-opacity:1"
               id="tspan6858">TRIPLE</tspan><tspan
               style="fill:#000000;fill-opacity:1"
               id="tspan6860">CITIES</tspan></tspan></text>
        <text
           inkscape:export-ydpi="120"
           inkscape:export-xdpi="120"
           inkscape:export-filename="/Users/adam/tcmsSingle2.png"
           sodipodi:linespacing="125%"
           id="text6862"
           y="811.33252"
           x="58.728745"
           style="font-size:11.04559231px;font-style:normal;font-variant:normal;font-weight:normal;font-stretch:normal;line-height:125%;letter-spacing:0px;word-spacing:0px;fill:#000000;fill-opacity:1;stroke:none;font-family:Calibri;-inkscape-font-specification:Calibri"
           xml:space="preserve"><tspan
             y="811.33252"
             x="58.728745"
             id="tspan6864"
             sodipodi:role="line"
             style="fill:#000000;fill-opacity:1;stroke:none">M    A    K    E    R    S    P    A    C    E</tspan></text>
      </g>
      <g
         id="g7298">
        <path
           inkscape:export-ydpi="120"
           inkscape:export-xdpi="120"
           inkscape:export-filename="/Users/adam/tcmsSingle2.png"
           transform="matrix(0.78354633,-0.45266767,0.4523807,0.78404338,-440.01906,375.44206)"
           d="m 228.96116,668.68895 -0.30094,34.57595 -0.30094,-34.57595 -29.79319,-17.5486 30.09413,17.02735 30.09413,-17.02736 z"
           inkscape:randomized="0"
           inkscape:rounded="8.6736174e-17"
           inkscape:flatsided="false"
           sodipodi:arg2="1.5707963"
           sodipodi:arg1="0.52359878"
           sodipodi:r2="34.749706"
           sodipodi:r1="0.34749705"
           sodipodi:cy="668.5152"
           sodipodi:cx="228.66022"
           sodipodi:sides="3"
           id="path6866"
           style="fill:#000000;fill-opacity:1;stroke:none"
           sodipodi:type="star" />
        <path
           style="font-size:medium;font-style:normal;font-variant:normal;font-weight:normal;font-stretch:normal;text-indent:0;text-align:start;text-decoration:none;line-height:normal;letter-spacing:normal;word-spacing:normal;text-transform:none;direction:ltr;block-progression:tb;writing-mode:lr-tb;text-anchor:start;baseline-shift:baseline;color:#000000;fill:#000000;fill-opacity:1;stroke:none;stroke-width:5.27419662;marker:none;visibility:visible;display:inline;overflow:visible;enable-background:accumulate;font-family:Sans;-inkscape-font-specification:Sans"
           d="m 33.130288,780.31352 a 1.5094257,1.4909312 0 0 0 -1.305614,0.74197 l -8.334469,14.27411 a 1.5094257,1.4909312 0 0 0 0,1.50161 l 8.334469,14.25645 a 1.5094257,1.4909312 0 0 0 1.305614,0.75964 l 16.686823,0 a 1.5094257,1.4909312 0 0 0 1.305614,-0.75964 l 8.334469,-14.25645 a 1.5094257,1.4909312 0 0 0 0,-1.50161 l -8.334469,-14.27411 a 1.5094257,1.4909312 0 0 0 -1.305614,-0.74197 l -16.686823,0 z m 0.876372,2.98555 14.93408,0 7.458098,12.79017 -7.458098,12.77251 -14.93408,0 -7.458098,-12.77251 7.458098,-12.79017 z"
           id="path6868"
           inkscape:connector-curvature="0" />
        <g
           inkscape:export-ydpi="120"
           inkscape:export-xdpi="120"
           inkscape:export-filename="/Users/adam/tcmsSingle2.png"
           style="fill:#000000;fill-opacity:1"
           transform="translate(-519.87485,302.07156)"
           id="g6870">
          <path
             id="path6872"
             d="m 568.65625,486.125 -0.5,1.28125 0.375,0.59375 0,5.96875 -0.21875,0 c -0.3452,0 -0.625,0.2798 -0.625,0.625 l 0,6.6875 c 0,0.3452 0.2798,0.625 0.625,0.625 l 1.34375,0 c 0.3452,0 0.625,-0.2798 0.625,-0.625 l 0,-6.6875 c 0,-0.3452 -0.2798,-0.625 -0.625,-0.625 l -0.25,0 0,-5.96875 0.375,-0.59375 -0.5,-1.28125 -0.625,0 z"
             style="fill:#000000;fill-opacity:1;stroke:none"
             inkscape:connector-curvature="0" />
          <path
             id="path6874"
             d="m 563.4375,483.46875 -7.0625,3.46875 -0.21875,-0.40625 -0.78125,0.4375 0.5,0.90625 -3.90625,2.25 0.0625,0.125 -2.03125,1.5 0.0937,0.1875 2.3125,-1.03125 0.0937,0.15625 3.90625,-2.25 0.53125,0.875 0.78125,-0.4375 -0.25,-0.40625 6.53125,-4.375 -0.5625,-1 z"
             style="fill:#000000;fill-opacity:1;stroke:none"
             inkscape:connector-curvature="0" />
          <g
             style="fill:#000000;fill-opacity:1"
             id="g6876"
             transform="matrix(0.1216438,0.07023109,-0.07023109,0.1216438,592.65878,385.48841)">
            <path
               sodipodi:nodetypes="sssss"
               inkscape:connector-curvature="0"
               id="path6878"
               d="m 212.30493,837.25842 c 0,3.39021 3.50706,5.78025 -18.02078,5.78025 -21.52784,0 -62.98373,-2.74831 -62.98373,-6.13852 0,-3.39021 41.45589,-6.13852 62.98373,-6.13852 21.52784,0 18.02078,3.10658 18.02078,6.49679 z"
               style="fill:#000000;fill-opacity:1;stroke:none" />
            <path
               sodipodi:nodetypes="sssss"
               inkscape:connector-curvature="0"
               id="path6880"
               d="m 241.20293,829.05004 c 0,3.41321 -5.64289,13.12434 -13.52204,14.08215 -8.0562,0.97933 -14.68909,-2.76695 -14.68909,-6.18016 0,-3.41321 6.57653,-6.18017 14.68909,-6.18017 8.11256,0 13.52204,-5.13503 13.52204,-1.72182 z"
               style="fill:#000000;fill-opacity:1;stroke:none"
               transform="matrix(1.0853659,0,0,1.057971,-18.182228,-48.87723)" />
          </g>
        </g>
      </g>
    </g>
    <g
       id="g7393">
      <path
         id="path7148"
         d="m 201.53125,1008.6122 -8.25,14 -16.4375,0.1562 -0.0625,0.125 0.0625,0.125 16.4375,0.125 8.25,14 0.28125,0 -8.0625,-14.25 8.0625,-14.2812 -0.28125,0 z"
         style="fill:#1a1a1a;fill-opacity:1;stroke:none"
         inkscape:connector-curvature="0" />
      <path
         inkscape:connector-curvature="0"
         id="path7224"
         d="m 185.13029,1007.1136 a 1.5094257,1.4909312 0 0 0 -1.30562,0.7419 l -8.33446,14.2741 a 1.5094257,1.4909312 0 0 0 0,1.5017 l 8.33446,14.2564 a 1.5094257,1.4909312 0 0 0 1.30562,0.7596 l 16.68682,0 a 1.5094257,1.4909312 0 0 0 1.30562,-0.7596 l 8.33446,-14.2564 a 1.5094257,1.4909312 0 0 0 0,-1.5017 l -8.33446,-14.2741 a 1.5094257,1.4909312 0 0 0 -1.30562,-0.7419 l -16.68682,0 z m 0.87637,2.9855 14.93408,0 7.4581,12.7902 -7.4581,12.7725 -14.93408,0 -7.4581,-12.7725 7.4581,-12.7902 z"
         style="font-size:medium;font-style:normal;font-variant:normal;font-weight:normal;font-stretch:normal;text-indent:0;text-align:start;text-decoration:none;line-height:normal;letter-spacing:normal;word-spacing:normal;text-transform:none;direction:ltr;block-progression:tb;writing-mode:lr-tb;text-anchor:start;baseline-shift:baseline;color:#000000;fill:#ff7d00;fill-opacity:1;stroke:none;stroke-width:5.27419662;marker:none;visibility:visible;display:inline;overflow:visible;enable-background:accumulate;font-family:Sans;-inkscape-font-specification:Sans" />
    </g>
  </g>
</svg>
